<svg xmlns="http://www.w3.org/2000/svg" width="429.361" height="165.234" viewBox="0 0 429.361 165.234"><path d="M95.052 126.54c-4.583 0-8.677 2.183-11.362 5.59v-5.26h-3.25v14.198l-.028.552.027.554v23.06h3.25v-14.122c2.686 3.406 6.78 5.59 11.362 5.59 8.074 0 14.64-6.764 14.64-15.08s-6.566-15.08-14.64-15.08zm0 26.855c-6.248 0-11.335-5.283-11.335-11.775s5.087-11.775 11.335-11.775c6.252 0 11.335 5.283 11.335 11.775s-5.083 11.775-11.335 11.775zm42.065-26.854c-8.074 0-14.64 6.765-14.64 15.08 0 8.317 6.566 15.08 14.64 15.08 4.584 0 8.677-2.183 11.362-5.59v5.237h3.25v-14.174l.027-.554c0-8.316-6.567-15.08-14.64-15.08zm0 26.855c-6.25 0-11.335-5.283-11.335-11.775s5.084-11.775 11.335-11.775c6.252 0 11.335 5.283 11.335 11.775s-5.083 11.775-11.335 11.775zm51.66-26.854c-8.075 0-14.64 6.765-14.64 15.08 0 8.317 6.565 15.08 14.64 15.08 4.582 0 8.676-2.183 11.36-5.59v5.237h3.252v-14.174l.026-.554c0-8.316-6.567-15.08-14.64-15.08zm0 26.855c-6.252 0-11.335-5.283-11.335-11.775s5.083-11.775 11.334-11.775c6.25 0 11.335 5.283 11.335 11.775s-5.083 11.775-11.334 11.775zm51.673-26.854c-8.07 0-14.64 6.765-14.64 15.08 0 8.317 6.57 15.08 14.64 15.08 8.074 0 14.64-6.763 14.64-15.08 0-8.316-6.566-15.08-14.64-15.08zm0 26.855c-6.248 0-11.336-5.283-11.336-11.775s5.088-11.775 11.336-11.775c6.252 0 11.336 5.283 11.336 11.775s-5.084 11.775-11.336 11.775zm186.51-3.633c-1.94 2.12-4.586 3.415-7.453 3.646-3.022.247-5.964-.702-8.276-2.67-2.314-1.964-3.723-4.713-3.967-7.738-.25-3.053.74-6.25 2.71-8.767 2.01-2.57 4.742-4.116 7.7-4.354 3.515-.285 6.9 1.043 9.292 3.645l2.393-2.198c-3.073-3.346-7.426-5.056-11.952-4.69-3.868.314-7.42 2.3-9.995 5.595-2.466 3.153-3.7 7.174-3.386 11.03.314 3.892 2.123 7.428 5.1 9.954 2.666 2.268 5.982 3.48 9.44 3.48.4 0 .802-.015 1.203-.048 3.688-.3 7.1-1.964 9.594-4.69l-2.4-2.196zm-312.506-30.38h3.29v36.965h-3.29zm45.33 22.283v-11.54h10.238v-3.25h-10.24v-7.478h-3.25v22.268c0 3.71 0 15.01 14.467 15.01v-3.252c-11.217 0-11.217-7.94-11.217-11.758zm48.452-7.266v21.876h3.25V134.4c0-.314 0-.658.01-1.02h10.23v-3.254h-9.927c.718-3.63 3.085-7.484 10.9-7.484v-3.25c-14.464 0-14.464 11.296-14.464 15.007zm53.317-5.713v-1.816h-3.346v29.478h3.346v-21.21c0-3.355 2.836-6.214 9.822-5.106l.416-3.16c-3.918-.783-7.98-.442-10.237 1.815zm42.194-2.102c-6.152 0-8.045 2.102-9.562 4.892-.388-.895-1.99-4.892-8.166-4.892-3.712 0-5.61.285-7.81 1.99v-1.705h-3.238v29.477h3.24v-15.924c.01-7.566 2.145-10.598 7.807-10.598 5.66 0 6.366 6.296 6.366 10.598v15.924h3.557v-15.924c0-7.615 1.854-10.598 7.805-10.598s6.447 7.59 6.393 10.598c-.01.53 0 15.924 0 15.924h3.24s.022-15.416.02-15.924c-.002-7.55-1.612-13.838-9.653-13.838zm29.05-.044c-8.073 0-14.64 6.765-14.64 15.08 0 8.317 6.566 15.08 14.64 15.08 4.584 0 8.678-2.183 11.365-5.59v5.237h3.25v-14.174l.025-.554c0-8.316-6.565-15.08-14.64-15.08zm0 26.855c-6.25 0-11.332-5.283-11.332-11.775s5.08-11.775 11.333-11.775c6.25 0 11.335 5.283 11.335 11.775s-5.084 11.775-11.335 11.775zm22.702-11.743v-11.54h10.237v-3.252H355.5v-7.478h-3.253v22.27c0 3.71 0 15.007 14.47 15.007v-3.252c-11.218 0-11.218-7.943-11.218-11.756zm28.99-15.09c-8.07 0-14.64 6.766-14.64 15.08 0 8.317 6.568 15.082 14.64 15.082 5.302 0 10.2-2.962 12.785-7.73l-2.903-1.574c-2.008 3.7-5.796 6-9.883 6-5.58 0-10.22-4.214-11.15-9.734l25.626-.03.093-.48c.047-.504.07-1.02.07-1.533 0-8.315-6.567-15.08-14.64-15.08zm0 3.307c5.856 0 10.693 4.64 11.274 10.566h-22.55c.584-5.928 5.418-10.567 11.275-10.567z" fill="#333"/><linearGradient id="a" gradientUnits="userSpaceOnUse" y1="65.138" x2="122.847" y2="65.138"><stop offset="0" stop-color="#12485B"/><stop offset="1" stop-color="#176789"/></linearGradient><path d="M76.273 1.104c-42.603-5.884-65.23 13.67-65.23 13.67-21.652 20.666-8.055 95.903 11.56 111.504 19.616 15.6 16.81-18.894 36.51-27.5 19.7-8.608 63.734-20.364 63.734-58.95 0-14.03-11.69-33.908-46.574-38.724zm-28.786 66.91c-8.837 2.9-14.776 2.547-17.917-9.078-3.32-12.29-5.78-24.036.392-29.924 0 0 6.638-9.34 25.18-7.8 18.543 1.542 24.416 7.758 24.94 18.35 1.02 20.732-23.826 25.574-32.595 28.452z" fill="url(#a)"/><linearGradient id="b" gradientUnits="userSpaceOnUse" x1="44.595" y1="-6.16" x2="61.402" y2="49.482"><stop offset="0" stop-color="#12485B"/><stop offset="1" stop-color="#176789"/></linearGradient><path d="M29.25 57.737c-3.333-12.83-4.562-23.688.715-28.725 0 0 6.637-9.34 25.18-7.8 18.543 1.542 24.938 7.745 24.938 18.35 0 1.36-.077 2.637-.222 3.835 0 0 38.18-10.79 41.608-12.178-3.983-12.52-17.03-26.226-45.194-30.116-42.602-5.884-65.23 13.67-65.23 13.67C1.35 24.03-1.277 44.22.538 65.1c5.7-1.004 23.074-5.004 28.713-7.36z" fill="url(#b)"/></svg>