<?xml version="1.0" encoding="UTF-8" standalone="no"?>
<svg
   xmlns:dc="http://purl.org/dc/elements/1.1/"
   xmlns:cc="http://creativecommons.org/ns#"
   xmlns:rdf="http://www.w3.org/1999/02/22-rdf-syntax-ns#"
   xmlns:svg="http://www.w3.org/2000/svg"
   xmlns="http://www.w3.org/2000/svg"
   xmlns:sodipodi="http://sodipodi.sourceforge.net/DTD/sodipodi-0.dtd"
   xmlns:inkscape="http://www.inkscape.org/namespaces/inkscape"
   viewBox="0 0 220 120"
   height="120"
   width="220"
   xml:space="preserve"
   version="1.1"
   id="svg2"
   inkscape:version="0.91 r13725"
   sodipodi:docname="gurusp-2018-site.svg"><sodipodi:namedview
     pagecolor="#ffffff"
     bordercolor="#666666"
     borderopacity="1"
     objecttolerance="10"
     gridtolerance="10"
     guidetolerance="10"
     inkscape:pageopacity="0"
     inkscape:pageshadow="2"
     inkscape:window-width="1440"
     inkscape:window-height="856"
     id="namedview62"
     showgrid="false"
     inkscape:zoom="1.4090909"
     inkscape:cx="110"
     inkscape:cy="60"
     inkscape:window-x="0"
     inkscape:window-y="0"
     inkscape:window-maximized="1"
     inkscape:current-layer="svg2" /><metadata
     id="metadata8"><rdf:RDF><cc:Work
         rdf:about=""><dc:format>image/svg+xml</dc:format><dc:type
           rdf:resource="http://purl.org/dc/dcmitype/StillImage" /><dc:title /></cc:Work></rdf:RDF></metadata><defs
     id="defs6"><clipPath
       id="clipPath60"
       clipPathUnits="userSpaceOnUse"><path
         id="path62"
         d="m 0,390.037 435.374,0 L 435.374,0 0,0 0,390.037 Z" /></clipPath><clipPath
       id="clipPath116"
       clipPathUnits="userSpaceOnUse"><path
         id="path118"
         d="m 0,390.037 435.374,0 L 435.374,0 0,0 0,390.037 Z" /></clipPath><clipPath
       id="clipPath130"
       clipPathUnits="userSpaceOnUse"><path
         id="path132"
         d="m 0,390.037 435.374,0 L 435.374,0 0,0 0,390.037 Z" /></clipPath><clipPath
       id="clipPath214"
       clipPathUnits="userSpaceOnUse"><path
         id="path216"
         d="m 0,390.037 435.374,0 L 435.374,0 0,0 0,390.037 Z" /></clipPath><clipPath
       id="clipPath228"
       clipPathUnits="userSpaceOnUse"><path
         id="path230"
         d="m 0,390.037 435.374,0 L 435.374,0 0,0 0,390.037 Z" /></clipPath><clipPath
       id="clipPath272"
       clipPathUnits="userSpaceOnUse"><path
         id="path274"
         d="m 0,390.037 435.374,0 L 435.374,0 0,0 0,390.037 Z" /></clipPath><clipPath
       id="clipPath286"
       clipPathUnits="userSpaceOnUse"><path
         id="path288"
         d="m 0,390.037 435.374,0 L 435.374,0 0,0 0,390.037 Z" /></clipPath></defs><g
     id="text24"
     style="font-variant:normal;font-weight:normal;font-stretch:normal;font-size:43.96087265px;font-family:'Bebas Neue Book';-inkscape-font-specification:BebasNeueBook;writing-mode:lr-tb;fill:#000000;fill-opacity:1;fill-rule:nonzero;stroke:none"
     transform="matrix(1.2485706,0,0,1.251431,0,119.99999)"><path
       inkscape:connector-curvature="0"
       id="path4191"
       d="m 34.401256,-56.1809 c -4.703813,0 -6.638092,3.341027 -6.638092,7.781075 l 0,15.737992 c 0,4.440048 1.934279,7.781075 6.638092,7.781075 4.703813,0 6.638092,-3.341027 6.638092,-7.781075 l 0,-8.352566 -6.02264,0 0,1.846357 4.088361,0 0,6.638092 c 0,3.297065 -1.274865,5.758874 -4.659852,5.758874 -3.384987,0 -4.659853,-2.461809 -4.659853,-5.758874 l 0,-16.001758 c 0,-3.297065 1.274866,-5.802835 4.659853,-5.802835 3.384987,0 4.659852,2.50577 4.659852,5.802835 l 0,2.417848 1.934279,0 0,-2.285965 c 0,-4.440048 -1.934279,-7.781075 -6.638092,-7.781075 z" /><path
       inkscape:connector-curvature="0"
       id="path4193"
       d="m 47.237799,-55.917134 -2.0222,0 0,23.255301 c 0,4.396087 1.890318,7.781075 6.594131,7.781075 4.703813,0 6.55017,-3.384988 6.55017,-7.781075 l 0,-23.255301 -1.890318,0 0,23.343223 c 0,3.297065 -1.230904,5.846796 -4.615891,5.846796 -3.384987,0 -4.615892,-2.549731 -4.615892,-5.846796 l 0,-23.343223 z" /><path
       inkscape:connector-curvature="0"
       id="path4195"
       d="m 62.712071,-55.917134 0,30.77261 2.0222,0 0,-13.759753 3.209144,0 c 3.51687,0 5.758874,1.142983 5.758874,5.231344 l 0,4.835696 c 0,1.670513 0.131883,2.769535 0.659413,3.692713 l 2.110122,0 c -0.659413,-1.0111 -0.747335,-2.417848 -0.747335,-3.692713 l 0,-4.791735 c 0,-3.341026 -1.274865,-5.583031 -4.440048,-6.286405 3.0333,-0.703374 4.440048,-2.769535 4.440048,-6.374326 l 0,-2.681614 c 0,-4.352126 -1.890317,-6.945817 -6.594131,-6.945817 l -6.418287,0 z m 2.0222,15.166501 0,-13.320145 4.352127,0 c 3.341026,0 4.615891,1.978239 4.615891,5.275305 l 0,2.901417 c 0,4.132323 -2.110122,5.143423 -5.714913,5.143423 l -3.253105,0 z" /><path
       inkscape:connector-curvature="0"
       id="path4197"
       d="m 82.494441,-55.917134 -2.022201,0 0,23.255301 c 0,4.396087 1.890318,7.781075 6.594131,7.781075 4.703814,0 6.55017,-3.384988 6.55017,-7.781075 l 0,-23.255301 -1.890317,0 0,23.343223 c 0,3.297065 -1.230905,5.846796 -4.615892,5.846796 -3.384987,0 -4.615891,-2.549731 -4.615891,-5.846796 l 0,-23.343223 z" /></g><g
     id="g28"
     transform="matrix(1.2509544,0,0,-1.2538202,123.98758,33.739262)"><path
       inkscape:connector-curvature="0"
       d="M 0,0 3.742,-53.433 56.139,-42.311 0,0 Z"
       style="fill:#962829;fill-opacity:1;fill-rule:nonzero;stroke:none"
       id="path30" /></g><g
     id="g32"
     transform="matrix(1.2509544,0,0,-1.2538202,144.8286,49.483112)"><path
       inkscape:connector-curvature="0"
       d="M 0,0 -12.918,-40.876 22.818,-17.197 0,0 Z"
       style="fill:#d04f3d;fill-opacity:1;fill-rule:nonzero;stroke:none"
       id="path34" /></g><g
     id="g36"
     transform="matrix(1.2509544,0,0,-1.2538202,128.66889,100.73414)"><path
       inkscape:connector-curvature="0"
       d="M 0,0 12.918,40.876 -3.742,53.433 0,0 Z"
       style="fill:#d77764;fill-opacity:1;fill-rule:nonzero;stroke:none"
       id="path38" /></g><g
     id="g40"
     transform="matrix(1.2509544,0,0,-1.2538202,146.18714,26.20845)"><path
       inkscape:connector-curvature="0"
       d="M 0,0 -17.746,-6.006 38.393,-48.317 39.277,-29.603 0,0 Z"
       style="fill:#bd3e2c;fill-opacity:1;fill-rule:nonzero;stroke:none"
       id="path42" /></g><g
     id="g44"
     transform="matrix(1.2509544,0,0,-1.2538202,173.37337,71.045312)"><path
       inkscape:connector-curvature="0"
       d="M 0,0 -2.094,20.959 -22.818,17.197 0,0 Z"
       style="fill:#d77764;fill-opacity:1;fill-rule:nonzero;stroke:none"
       id="path46" /></g><g
     id="g48"
     transform="matrix(1.2509544,0,0,-1.2538202,195.32124,63.324662)"><path
       inkscape:connector-curvature="0"
       d="M 0,0 -17.545,-6.158 -0.885,-18.714 0,0 Z"
       style="fill:#962829;fill-opacity:1;fill-rule:nonzero;stroke:none"
       id="path50" /></g><g
     id="g52"
     transform="matrix(1.2509544,0,0,-1.2538202,146.18714,26.20845)"><path
       inkscape:connector-curvature="0"
       d="M 0,0 -1.086,-18.563 -17.746,-6.006 0,0 Z"
       style="fill:#d77764;fill-opacity:1;fill-rule:nonzero;stroke:none"
       id="path54" /></g><g
     id="g56"
     transform="matrix(1.2509544,0,0,-1.2538202,-300.63299,311.03629)"><g
       id="g58"
       clip-path="url(#clipPath60)"><g
         id="g64"
         transform="translate(351.8846,170.4815)"><path
           inkscape:connector-curvature="0"
           d="m 0,0 38.771,8.229 c 1.109,0.236 1.427,1.668 0.521,2.351 l -11.549,8.704 c -0.447,0.338 -1.059,0.356 -1.527,0.047 L -0.644,1.533 C -1.422,1.017 -0.914,-0.194 0,0 m 2.435,38.359 -11.549,8.704 c -0.907,0.683 -2.196,-0.017 -2.116,-1.149 L -8.461,6.377 C -8.396,5.445 -7.092,5.291 -6.81,6.181 l 9.709,30.723 c 0.169,0.534 -0.017,1.117 -0.464,1.455 M 2.479,54.802 -8.212,51.184 c -1.007,-0.341 -1.221,-1.67 -0.372,-2.309 L 1.453,41.309 c 0.844,-0.636 2.056,-0.075 2.117,0.979 l 0.655,11.184 c 0.054,0.937 -0.857,1.631 -1.746,1.33 M 41.778,25.169 31.207,21.459 C 30.211,21.109 30.006,19.79 30.85,19.154 l 10.037,-7.565 c 0.849,-0.64 2.068,-0.068 2.118,0.994 l 0.533,11.275 c 0.044,0.937 -0.874,1.621 -1.76,1.311 M 4.113,34.885 -5.984,2.934 C -6.36,1.744 -5.032,0.743 -3.992,1.432 l 27.933,18.509 c 0.761,0.504 0.794,1.61 0.066,2.159 L 6.171,35.542 c -0.73,0.55 -1.782,0.213 -2.058,-0.657 m 2.7,4.61 13.008,2.36 c 1.135,0.207 1.481,1.665 0.56,2.359 L 8.055,53.504 C 7.211,54.14 6,53.579 5.937,52.525 L 5.256,40.874 C 5.206,40.018 5.97,39.342 6.813,39.495 M 25.649,25.853 24.295,39.421 c -0.077,0.769 -0.793,1.308 -1.553,1.17 L 9.326,38.156 C 8.19,37.95 7.845,36.492 8.766,35.798 L 23.537,24.665 c 0.921,-0.694 2.228,0.041 2.112,1.188 m 0.665,11.108 1.315,-13.154 c 0.085,-0.853 0.945,-1.401 1.754,-1.118 l 11.013,3.866 c 0.997,0.349 1.202,1.669 0.358,2.304 l -12.326,9.29 C 27.507,38.844 26.2,38.109 26.314,36.961 M 44.181,7.647 C 44.149,7.626 44.121,7.604 44.088,7.587 44.079,7.583 44.073,7.576 44.064,7.572 44.028,7.555 43.99,7.549 43.953,7.537 43.926,7.528 43.901,7.514 43.873,7.507 L -8.523,-3.614 c -0.012,-0.003 -0.024,-0.002 -0.035,-0.004 -0.043,-0.007 -0.086,-0.012 -0.13,-0.013 -0.011,0 -0.024,-0.001 -0.037,-0.001 -0.01,0 -0.021,0.003 -0.032,0.003 -0.017,10e-4 -0.035,0 -0.054,0.002 -0.011,10e-4 -0.022,0.006 -0.034,0.008 -0.04,0.007 -0.078,0.016 -0.117,0.028 -0.017,0.006 -0.035,0.009 -0.053,0.016 -0.013,0.005 -0.026,0.01 -0.039,0.015 -0.064,0.027 -0.126,0.06 -0.182,0.103 0,0 -10e-4,0 -10e-4,10e-4 l -10e-4,0 c -0.005,0.004 -0.009,0.009 -0.014,0.013 -0.044,0.035 -0.086,0.073 -0.123,0.115 -0.012,0.015 -0.021,0.032 -0.032,0.047 -0.013,0.017 -0.025,0.034 -0.036,0.052 -0.013,0.019 -0.028,0.036 -0.038,0.056 -0.012,0.021 -0.019,0.045 -0.029,0.068 -0.01,0.021 -0.019,0.042 -0.027,0.064 -0.003,0.01 -0.009,0.018 -0.012,0.028 -0.001,0.004 -0.004,0.009 -0.005,0.013 -0.017,0.061 -0.029,0.124 -0.034,0.187 L -13.33,50.62 c -0.002,0.029 0.006,0.057 0.007,0.085 0.001,0.04 -0.004,0.078 0.002,0.117 0.002,0.01 0.007,0.017 0.008,0.027 0.007,0.036 0.021,0.07 0.033,0.105 0.013,0.043 0.026,0.086 0.047,0.125 0.016,0.033 0.038,0.061 0.057,0.091 0.026,0.038 0.05,0.075 0.081,0.107 0.025,0.027 0.052,0.049 0.079,0.073 0.036,0.029 0.072,0.058 0.111,0.082 0.012,0.007 0.022,0.019 0.035,0.026 0.02,0.011 0.043,0.014 0.064,0.024 0.026,0.011 0.047,0.027 0.074,0.036 l 17.746,6.006 c 0.274,0.093 0.582,0.06 0.806,-0.127 0.003,-10e-4 0.006,-0.002 0.008,-0.004 l 39.274,-29.6 0.003,-0.002 c 0.234,-0.176 0.365,-0.455 0.351,-0.747 L 44.571,8.33 C 44.57,8.302 44.561,8.276 44.557,8.249 44.553,8.226 44.557,8.203 44.551,8.18 44.548,8.166 44.54,8.154 44.536,8.14 44.523,8.095 44.506,8.053 44.487,8.011 44.473,7.978 44.459,7.945 44.44,7.915 44.434,7.903 44.431,7.891 44.423,7.88 44.405,7.854 44.38,7.833 44.359,7.808 44.336,7.78 44.314,7.751 44.288,7.727 44.255,7.696 44.218,7.672 44.181,7.647"
           style="fill:#000000;fill-opacity:1;fill-rule:nonzero;stroke:none"
           id="path66" /></g><g
         id="g68"
         transform="translate(401.9236,186.6876)"><path
           inkscape:connector-curvature="0"
           d="m 0,0 c -0.319,0.241 -0.772,0.177 -1.014,-0.142 l -3.461,-4.593 c -0.24,-0.319 -0.176,-0.772 0.143,-1.013 0.318,-0.24 0.772,-0.177 1.013,0.142 l 3.462,4.593 C 0.383,-0.694 0.319,-0.24 0,0"
           style="fill:#000000;fill-opacity:1;fill-rule:nonzero;stroke:none"
           id="path70" /></g><g
         id="g72"
         transform="translate(394.1238,176.3389)"><path
           inkscape:connector-curvature="0"
           d="m 0,0 c -0.319,0.241 -0.772,0.177 -1.013,-0.142 l -3.462,-4.593 c -0.241,-0.319 -0.176,-0.773 0.143,-1.014 0.318,-0.24 0.772,-0.176 1.013,0.143 l 3.462,4.593 C 0.383,-0.694 0.319,-0.241 0,0"
           style="fill:#000000;fill-opacity:1;fill-rule:nonzero;stroke:none"
           id="path74" /></g><g
         id="g76"
         transform="translate(398.991,178.563)"><path
           inkscape:connector-curvature="0"
           d="m 0,0 c 0.147,-0.112 0.338,-0.167 0.536,-0.139 l 5.695,0.8 C 6.627,0.717 6.903,1.082 6.848,1.478 6.792,1.874 6.426,2.15 6.03,2.094 L 0.334,1.294 C -0.062,1.238 -0.337,0.873 -0.281,0.477 -0.254,0.279 -0.148,0.111 0,0"
           style="fill:#000000;fill-opacity:1;fill-rule:nonzero;stroke:none"
           id="path78" /></g><g
         id="g80"
         transform="translate(403.7635,173.586)"><path
           inkscape:connector-curvature="0"
           d="M 0,0 -4.593,3.461 C -4.912,3.702 -5.365,3.639 -5.605,3.319 -5.847,3 -5.782,2.547 -5.464,2.307 l 4.594,-3.462 c 0.318,-0.241 0.772,-0.177 1.013,0.142 C 0.383,-0.694 0.319,-0.24 0,0"
           style="fill:#000000;fill-opacity:1;fill-rule:nonzero;stroke:none"
           id="path82" /></g><g
         id="g84"
         transform="translate(397.075,175.171)"><path
           inkscape:connector-curvature="0"
           d="M 0,0 C -0.056,0.396 -0.421,0.671 -0.817,0.616 -1.213,0.56 -1.488,0.194 -1.433,-0.201 l 0.8,-5.696 c 0.029,-0.198 0.134,-0.365 0.281,-0.477 0.148,-0.111 0.338,-0.167 0.537,-0.139 0.395,0.056 0.67,0.422 0.616,0.818 L 0,0 Z"
           style="fill:#000000;fill-opacity:1;fill-rule:nonzero;stroke:none"
           id="path86" /></g><g
         id="g88"
         transform="translate(366.1668,237.4439)"><path
           inkscape:connector-curvature="0"
           d="m 0,0 c -0.342,0.348 -0.901,0.353 -1.249,0.011 l -5.005,-4.92 c -0.348,-0.341 -0.352,-0.9 -0.011,-1.248 0.342,-0.347 0.901,-0.352 1.248,-0.01 l 5.006,4.918 C 0.337,-0.907 0.342,-0.348 0,0"
           style="fill:#000000;fill-opacity:1;fill-rule:nonzero;stroke:none"
           id="path90" /></g><g
         id="g92"
         transform="translate(369.6931,228.7173)"><path
           inkscape:connector-curvature="0"
           d="m 0,0 c 0.005,0.487 -0.388,0.886 -0.875,0.89 l -7.018,0.061 c -0.488,0.004 -0.885,-0.388 -0.89,-0.875 -0.002,-0.243 0.095,-0.466 0.253,-0.626 0.158,-0.161 0.379,-0.262 0.622,-0.264 l 7.017,-0.061 C -0.402,-0.879 -0.004,-0.488 0,0"
           style="fill:#000000;fill-opacity:1;fill-rule:nonzero;stroke:none"
           id="path94" /></g><g
         id="g96"
         transform="translate(353.0056,229.7442)"><path
           inkscape:connector-curvature="0"
           d="m 0,0 -7.018,0.061 c -0.487,0.004 -0.885,-0.388 -0.89,-0.875 -0.002,-0.244 0.095,-0.465 0.254,-0.626 0.158,-0.162 0.378,-0.263 0.621,-0.265 l 7.017,-0.06 C 0.473,-1.77 0.871,-1.378 0.875,-0.89 0.88,-0.403 0.487,-0.004 0,0"
           style="fill:#000000;fill-opacity:1;fill-rule:nonzero;stroke:none"
           id="path98" /></g><g
         id="g100"
         transform="translate(354.9314,231.3301)"><path
           inkscape:connector-curvature="0"
           d="m 0,0 c 0.348,0.342 0.353,0.901 0.012,1.249 l -4.92,5.005 C -5.25,6.602 -5.809,6.606 -6.156,6.265 -6.504,5.923 -6.509,5.364 -6.167,5.016 L -1.248,0.011 C -0.906,-0.337 -0.348,-0.342 0,0"
           style="fill:#000000;fill-opacity:1;fill-rule:nonzero;stroke:none"
           id="path102" /></g><g
         id="g104"
         transform="translate(358.3767,240.231)"><path
           inkscape:connector-curvature="0"
           d="M 0,0 C 0.005,0.487 -0.387,0.886 -0.875,0.89 -1.362,0.895 -1.761,0.503 -1.765,0.015 l -0.061,-7.017 c -0.002,-0.244 0.095,-0.466 0.254,-0.627 0.158,-0.161 0.378,-0.262 0.622,-0.264 0.487,-0.004 0.886,0.388 0.889,0.875 L 0,0 Z"
           style="fill:#000000;fill-opacity:1;fill-rule:nonzero;stroke:none"
           id="path106" /></g></g></g><g
     id="text108"
     style="font-variant:normal;font-weight:bold;font-stretch:normal;font-size:49.22670746px;font-family:'Bebas Neue Bold';-inkscape-font-specification:BebasNeueBold;writing-mode:lr-tb;fill:#ffffff;fill-opacity:1;fill-rule:nonzero;stroke:none"
     transform="matrix(1.2485706,0,0,1.251431,0,119.99999)"><path
       inkscape:connector-curvature="0"
       id="path4200"
       d="m 98.146494,-50.271013 c 0,9.845341 10.583746,11.174462 10.583746,18.263108 0,2.461335 -1.08299,3.347416 -2.80593,3.347416 -1.72293,0 -2.80592,-0.886081 -2.80592,-3.347416 l 0,-2.461335 -5.119576,0 0,2.116748 c 0,5.513391 2.756696,8.663901 8.073176,8.663901 5.31649,0 8.07318,-3.15051 8.07318,-8.663901 0,-9.845341 -10.58374,-11.174463 -10.58374,-18.263108 0,-2.461336 0.98454,-3.396643 2.70747,-3.396643 1.72294,0 2.70747,0.935307 2.70747,3.396643 l 0,1.427574 5.11958,0 0,-1.082987 c 0,-5.513392 -2.70747,-8.663901 -7.97473,-8.663901 -5.26726,0 -7.974726,3.150509 -7.974726,8.663901 z" /><path
       inkscape:connector-curvature="0"
       id="path4202"
       d="m 126.20567,-58.5411 -7.97472,0 0,34.458695 5.41494,0 0,-12.946624 2.55978,0 c 5.41494,0 8.07318,-3.002829 8.07318,-8.516221 l 0,-4.47963 c 0,-5.513391 -2.65824,-8.51622 -8.07318,-8.51622 z m 0,4.92267 c 1.72294,0 2.65825,0.787628 2.65825,3.248963 l 0,5.168804 c 0,2.461336 -0.93531,3.248963 -2.65825,3.248963 l -2.55978,0 0,-11.66673 2.55978,0 z" /></g></svg>